# xmcd
#
# Track frame offsets:
#	150
#	15916
#	32129
#	49441
#	64469
#	83244
#	101980
#	121386
#	140185
#	161004
#	177509
#	195003
#	213263
#	233925
#	248018
#	267846
#
# Disc length: 3928 seconds
#
# Revision: 0
# Processed by: cddbd v1.5.1PL2 Copyright (c) Steve Scherf et al.
# Submitted via: EasyCDDAExtractor 4.6.9.1
#
DISCID=e50f5610
DTITLE=Rascal Flatts - Me And My Gang
DYEAR=2006
DGENRE=Country
TTITLE0=Stand
TTITLE1=What Hurts The Most
TTITLE2=Backwards
TTITLE3=I Feel Bad
TTITLE4=My Wish
TTITLE5=Pieces
TTITLE6=Yes I Do
TTITLE7=To Make Her Love Me
TTITLE8=Words I Can't Say
TTITLE9=Me And My Gang
TTITLE10=Cool Thing
TTITLE11=Ellsworth
TTITLE12=He Ain't The Leavin' Kind
TTITLE13=Love You Out Loud (Live)
TTITLE14=Mayberry (Live)
TTITLE15=These Days (Live)
EXTD=
EXTT0=
EXTT1=
EXTT2=
EXTT3=
EXTT4=
EXTT5=
EXTT6=
EXTT7=
EXTT8=
EXTT9=
EXTT10=
EXTT11=
EXTT12=
EXTT13=
EXTT14=
EXTT15=
PLAYORDER=
